HIERARCHY
ROOT butt
{
	OFFSET 0.000000 0.000000 0.000000
	CHANNELS 6 Xposition Yposition Zposition Xrotation Yrotation Zrotation
	JOINT lhip
	{
		OFFSET 0.583813 0.718669 -0.323938
		CHANNELS 6 Xposition Yposition Zposition Xrotation Yrotation Zrotation
		JOINT lknee
		{
			OFFSET 0.553245 0.216339 -1.020714
			CHANNELS 6 Xposition Yposition Zposition Xrotation Yrotation Zrotation
			JOINT lankle
			{
				OFFSET -0.339279 0.080945 -1.465530
				CHANNELS 6 Xposition Yposition Zposition Xrotation Yrotation Zrotation
				End Site
				{
					OFFSET 0.537810 -0.043777 -0.195635
				}
			}
		}
	}
	JOINT rhip
	{
		OFFSET 0.339136 -0.940503 -0.149914
		CHANNELS 6 Xposition Yposition Zposition Xrotation Yrotation Zrotation
		JOINT rknee
		{
			OFFSET 0.601234 -0.223249 -1.073499
			CHANNELS 6 Xposition Yposition Zposition Xrotation Yrotation Zrotation
			JOINT rankle
			{
				OFFSET -0.245263 -0.041399 -1.532960
				CHANNELS 6 Xposition Yposition Zposition Xrotation Yrotation Zrotation
				End Site
				{
					OFFSET 0.653910 0.024899 -0.232875
				}
			}
		}
	}
	JOINT abdomen
	{
		OFFSET 0.907647 0.026340 0.317664
		CHANNELS 6 Xposition Yposition Zposition Xrotation Yrotation Zrotation
		JOINT neck
		{
			OFFSET 1.496963 0.039292 -0.038456
			CHANNELS 6 Xposition Yposition Zposition Xrotation Yrotation Zrotation
			End Site
			{
				OFFSET 2.739308 -0.092250 1.009232
			}
		}
		JOINT lshldr
		{
			OFFSET 1.132326 0.559775 -0.444207
			CHANNELS 6 Xposition Yposition Zposition Xrotation Yrotation Zrotation
			JOINT lelbow
			{
				OFFSET -0.149559 0.286290 -0.912030
				CHANNELS 6 Xposition Yposition Zposition Xrotation Yrotation Zrotation
				JOINT lwrist
				{
					OFFSET 0.485181 -0.390159 0.265472
					CHANNELS 6 Xposition Yposition Zposition Xrotation Yrotation Zrotation
					End Site
					{
						OFFSET 0.527290 -0.521758 -0.124363
					}
				}
			}
		}
		JOINT rshldr
		{
			OFFSET 1.100885 -0.503887 -0.296241
			CHANNELS 6 Xposition Yposition Zposition Xrotation Yrotation Zrotation
			JOINT relbow
			{
				OFFSET -0.198937 -0.642069 -0.689888
				CHANNELS 6 Xposition Yposition Zposition Xrotation Yrotation Zrotation
				JOINT rwrist
				{
					OFFSET 0.636091 0.394674 0.001069
					CHANNELS 6 Xposition Yposition Zposition Xrotation Yrotation Zrotation
					End Site
					{
						OFFSET 0.557086 0.133476 -0.377524
					}
				}
			}
		}
	}
}
MOTION
Frames: 7
Frame Time: 0.033333
1.768591 0.003503 0.235570 -12.285746 0.821966 9.507984 0.583813 0.718669 -0.323938 27.559521 -24.102923 4.795499 0.553245 0.216339 -1.020714 -8.847521 34.145888 46.327527 -0.339279 0.080945 -1.465531 -40.574367 -7.790007 -50.934893 0.339136 -0.940503 -0.149914 -0.945709 -42.155921 -3.721454 0.601234 -0.223249 -1.073499 -36.781474 66.099081 46.591148 -0.245263 -0.041399 -1.532960 17.158759 0.890259 -3.584604 0.907647 0.026340 0.317664 4.594082 -19.093843 0.110148 1.496963 0.039292 -0.038456 10.130976 26.247748 13.444405 1.132326 0.559775 -0.444207 24.565008 0.853719 -89.711980 -0.149559 0.286290 -0.912030 151.940782 26.857484 -53.387549 0.485181 -0.390159 0.265472 0.836711 0.949707 12.439413 1.100885 -0.503887 -0.296241 12.647446 -48.648804 -28.895289 -0.198936 -0.642069 -0.689888 -33.329015 116.764939 2.669503 0.636091 0.394674 0.001069 5.361695 -7.478145 14.422038 
1.908803 0.006832 0.193710 -12.294307 0.563903 9.944911 0.583813 0.718669 -0.323938 23.182027 -19.334211 0.933195 0.553245 0.216339 -1.020714 -9.639119 35.084793 47.438351 -0.339279 0.080945 -1.465531 -43.132590 -11.667954 -52.546168 0.339136 -0.940503 -0.149914 -2.344775 -36.537059 -2.671369 0.601234 -0.223249 -1.073499 -29.214679 64.195964 38.105475 -0.245263 -0.041399 -1.532960 16.448754 -1.378908 -2.725820 0.907647 0.026340 0.317664 5.819683 -15.219748 0.000214 1.496963 0.039292 -0.038456 9.412049 21.466673 12.634327 1.132326 0.559775 -0.444207 24.558377 1.214034 -90.303932 -0.149559 0.286290 -0.912030 151.731683 26.942943 -53.642578 0.485181 -0.390159 0.265472 1.221067 0.982859 13.065855 1.100885 -0.503887 -0.296241 12.513606 -49.289128 -29.426203 -0.198936 -0.642069 -0.689888 -32.366433 116.027388 1.443255 0.636091 0.394674 0.001070 5.912531 -7.213177 14.812672 
2.056931 0.012820 0.144070 -11.892277 0.548202 9.773539 0.583813 0.718669 -0.323938 18.233893 -16.162408 -3.685439 0.553245 0.216339 -1.020714 -10.504775 36.189853 49.175559 -0.339278 0.080945 -1.465530 -46.341983 -14.398249 -54.001456 0.339136 -0.940503 -0.149914 -3.583517 -28.237788 -1.101682 0.601234 -0.223249 -1.073498 -15.523625 57.141065 25.585458 -0.245263 -0.041399 -1.532960 15.697125 -2.407131 -2.283736 0.907647 0.026340 0.317664 6.500134 -11.288529 -0.157395 1.496963 0.039292 -0.038456 8.362437 16.821334 12.043993 1.132326 0.559775 -0.444207 24.262292 1.348011 -89.903410 -0.149559 0.286290 -0.912030 151.656906 26.822788 -53.355351 0.485181 -0.390159 0.265472 1.355204 0.967073 12.998807 1.100885 -0.503887 -0.296241 11.244753 -49.947941 -30.645519 -0.198937 -0.642069 -0.689888 -32.057510 115.373424 0.968021 0.636092 0.394674 0.001069 6.463858 -6.943649 15.199809 
2.217700 0.018326 0.092960 -11.156654 0.711862 9.020741 0.583813 0.718669 -0.323938 13.841121 -15.239889 -8.427190 0.553245 0.216339 -1.020714 -11.478684 37.256319 50.638763 -0.339279 0.080945 -1.465530 -49.360039 -14.933526 -54.837704 0.339136 -0.940503 -0.149914 -3.984904 -18.836676 1.503714 0.601234 -0.223249 -1.073499 -4.168893 46.458592 17.685347 -0.245263 -0.041399 -1.532960 16.542155 -1.263144 -2.782261 0.907647 0.026340 0.317664 6.408410 -7.246533 -0.569358 1.496963 0.039292 -0.038456 7.265678 12.347965 11.649789 1.132326 0.559775 -0.444207 23.847049 1.383804 -88.575375 -0.149559 0.286290 -0.912030 151.451194 26.550665 -52.713231 0.485181 -0.390159 0.265472 1.438116 0.922063 12.532079 1.100885 -0.503887 -0.296241 9.324532 -50.640279 -32.190542 -0.198937 -0.642069 -0.689888 -32.587966 114.640231 1.403446 0.636091 0.394674 0.001069 6.911605 -6.714870 15.514846 
2.388202 0.020819 0.044100 -10.361607 0.965453 8.100916 0.583813 0.718669 -0.323938 10.071733 -15.790013 -13.444189 0.553245 0.216339 -1.020714 -12.671834 38.456294 52.052790 -0.339279 0.080945 -1.465530 -51.613448 -13.814321 -54.976182 0.339137 -0.940503 -0.149914 -2.487325 -9.955730 5.056848 0.601234 -0.223249 -1.073499 2.890333 35.899498 14.541944 -0.245263 -0.041399 -1.532960 18.671914 -0.194998 -3.563601 0.907647 0.026340 0.317664 5.974127 -3.172462 -1.040152 1.496963 0.039292 -0.038456 6.240313 8.139203 11.482388 1.132326 0.559775 -0.444207 23.155540 1.446176 -86.639816 -0.149559 0.286290 -0.912030 150.450913 26.087231 -51.827332 0.485181 -0.390160 0.265472 2.087979 0.844652 12.182969 1.100885 -0.503887 -0.296241 7.270199 -51.294041 -33.415881 -0.198937 -0.642069 -0.689888 -34.201131 113.798089 2.984365 0.636091 0.394674 0.001069 7.193014 -6.571177 15.709162 
2.559793 0.019113 0.000960 -9.805660 1.304042 7.251639 0.583813 0.718669 -0.323938 8.413309 -15.733076 -17.369005 0.553245 0.216339 -1.020714 -14.151330 39.901292 54.164151 -0.339279 0.080945 -1.465531 -52.705797 -12.002255 -54.548186 0.339136 -0.940503 -0.149914 1.482885 -3.190917 8.271996 0.601234 -0.223249 -1.073499 5.844905 28.194819 13.528184 -0.245263 -0.041399 -1.532961 20.397221 -1.627031 -3.392158 0.907647 0.026340 0.317664 5.773773 0.728191 -1.229076 1.496963 0.039292 -0.038456 5.333690 4.325580 11.594073 1.132326 0.559775 -0.444207 22.065263 1.673969 -84.570262 -0.149559 0.286290 -0.912030 148.979881 25.551494 -50.970621 0.485182 -0.390159 0.265472 3.092564 0.774262 12.066504 1.100886 -0.503887 -0.296241 5.652096 -51.924730 -33.756301 -0.198937 -0.642069 -0.689888 -36.687593 112.929207 5.477400 0.636091 0.394674 0.001069 7.291794 -6.524884 15.779566 
2.722606 0.014324 -0.031990 -9.584349 1.834242 5.072317 0.583813 0.718669 -0.323938 7.598579 -15.098540 -20.166987 0.553245 0.216339 -1.020714 -15.611231 41.292786 57.001296 -0.339278 0.080945 -1.465530 -52.411508 -10.270524 -53.763394 0.339136 -0.940503 -0.149914 6.315478 0.860844 9.311600 0.601234 -0.223249 -1.073499 5.600601 23.761747 13.293011 -0.245263 -0.041399 -1.532960 20.700657 -5.216756 -2.024565 0.907647 0.026340 0.317664 5.890534 4.373530 -1.279652 1.496963 0.039292 -0.038456 4.865917 1.023510 12.108995 1.132326 0.559775 -0.444207 20.652452 2.201279 -82.739184 -0.149559 0.286290 -0.912030 147.634662 25.018489 -50.177773 0.485181 -0.390159 0.265471 3.943948 0.705791 11.938734 1.100885 -0.503887 -0.296241 5.180393 -52.743817 -32.787299 -0.198937 -0.642069 -0.689888 -39.351879 112.313534 8.175357 0.636091 0.394674 0.001069 7.205406 -6.565908 15.721658 
